<svg xmlns="http://www.w3.org/2000/svg" viewBox="0 0 48 48"><defs><style>.cls-1{fill:#192835;}.cls-2{fill:#f5de0a;}.cls-3{fill:#4891d3;}.cls-4{fill:#a1d51c;}</style></defs><title>Support</title><g id="Support"><path class="cls-1" d="M10,21H9a4,4,0,0,0-4,4v6a4,4,0,0,0,4,4h1a1,1,0,0,0,1-1V22A1,1,0,0,0,10,21ZM7,31V25a2,2,0,0,1,2-2V33A2,2,0,0,1,7,31Z"/><path class="cls-2" d="M9,23V33a2,2,0,0,1-2-2V25A2,2,0,0,1,9,23Z"/><path class="cls-1" d="M12,19a3,3,0,0,0-2.82,2A2.77,2.77,0,0,0,9,22V34a2.77,2.77,0,0,0,.18,1A3,3,0,0,0,15,34V22A3,3,0,0,0,12,19Zm1,15a1,1,0,0,1-2,0V22a1,1,0,0,1,2,0Z"/><path class="cls-3" d="M13,22V34a1,1,0,0,1-2,0V22a1,1,0,0,1,2,0Z"/><path class="cls-1" d="M39,21H38a1,1,0,0,0-1,1V34a1,1,0,0,0,1,1h1a4,4,0,0,0,4-4V25A4,4,0,0,0,39,21Zm2,10a2,2,0,0,1-2,2V23a2,2,0,0,1,2,2Z"/><path class="cls-2" d="M41,25v6a2,2,0,0,1-2,2V23A2,2,0,0,1,41,25Z"/><path class="cls-1" d="M38.82,21A3,3,0,0,0,33,22V34a3,3,0,0,0,5.82,1A2.77,2.77,0,0,0,39,34V22A2.77,2.77,0,0,0,38.82,21ZM36,35a1,1,0,0,1-1-1V22a1,1,0,0,1,2,0V34A1,1,0,0,1,36,35Z"/><path class="cls-3" d="M37,22V34a1,1,0,0,1-2,0V22a1,1,0,0,1,2,0Z"/><path class="cls-1" d="M38,32a1,1,0,0,1-1-1V20a13,13,0,0,0-26,0V31a1,1,0,0,1-2,0V20a15,15,0,0,1,30,0V31A1,1,0,0,1,38,32Z"/><path class="cls-1" d="M30,43H24a1,1,0,0,1,0-2h6a7,7,0,0,0,7-7,1,1,0,0,1,2,0A9,9,0,0,1,30,43Z"/><path class="cls-1" d="M24,37a3,3,0,0,0,0,6h2a1,1,0,0,0,1-1V40A3,3,0,0,0,24,37Zm1,4H24a1,1,0,1,1,1-1Z"/><path class="cls-4" d="M25,40v1H24a1,1,0,1,1,1-1Z"/></g></svg>