<?xml version="1.0" encoding="UTF-8" standalone="no"?>
<svg
   version="1.1"
   id="Layer_1"
   x="0px"
   y="0px"
   viewBox="0 0 122.88 97.22"
   style="enable-background:new 0 0 122.88 97.22"
   xml:space="preserve"
   sodipodi:docname="video-conference.svg"
   inkscape:version="1.1 (c68e22c387, 2021-05-23)"
   xmlns:inkscape="http://www.inkscape.org/namespaces/inkscape"
   xmlns:sodipodi="http://sodipodi.sourceforge.net/DTD/sodipodi-0.dtd"
   xmlns="http://www.w3.org/2000/svg"
   xmlns:svg="http://www.w3.org/2000/svg"><defs
     id="defs29" /><sodipodi:namedview
     id="namedview27"
     pagecolor="#ffffff"
     bordercolor="#111111"
     borderopacity="1"
     inkscape:pageshadow="0"
     inkscape:pageopacity="0"
     inkscape:pagecheckerboard="1"
     showgrid="false"
     inkscape:zoom="6.1750016"
     inkscape:rotation="1"
     inkscape:cx="89.753575"
     inkscape:cy="52.256277"
     inkscape:window-width="2498"
     inkscape:window-height="1057"
     inkscape:window-x="1974"
     inkscape:window-y="-8"
     inkscape:window-maximized="1"
     inkscape:current-layer="Layer_1" /><style
     type="text/css"
     id="style20"><![CDATA[
	.st0{fill-rule:evenodd;clip-rule:evenodd;}
]]></style><g
     id="g24"
     style="fill:#000000"><path
       class="st0"
       d="m 68.239998,82.885001 c -10.38,0 -3.55,0.81 -2.13,-10.47 2.12,-16.88 18.16,-16.88 20.53,0 1.52,10.85 8.03,10.47 -2.13,10.47 h -4.06 c -0.02,2.77 -0.44,3.62 2.42,5.17 1.46,0.79 4.19,1.38 6.51,2.3 3.55,-3.03 9.85,-1.03 10.5,-6.59 0.1,-0.85 -1.9,-3.52 -2.35,-5.06 -0.98,-1.57 -1.33,-4.04 -0.26,-5.69 0.42,-0.66 0.25,-3.05 0.25,-3.95 0,-8.99 15.750002,-9 15.750002,0 0,1.13 -0.26,3.23 0.35,4.12 1.03,1.5 0.5,4.15 -0.37,5.53 -0.56,1.63 -2.68,4.15 -2.5,5.06 1.53,7.78 12.13,-0.55 12.13,13.45 -40.960002,0 -81.920002,-0.56 -122.8800024032593,-0.56 0,-14.23 13.4300004032593,-5.8 14.4600004032593,-14.51 0.11,-0.95 -2.13,-4.01 -2.64,-5.74 -1.09,-1.75 -1.5,-4.54 -0.29,-6.39 0.48,-0.73 0.28,-3.42 0.28,-4.44 0,-10.08 17.65,-10.08 17.65,0 0,1.28 -0.29,3.62 0.4,4.62 1.16,1.67 0.56,4.64 -0.41,6.2 -0.63,1.83 -3,4.71 -2.81,5.74 0.74,3.77 10.13,5.77 13.4,7.15 1.85,-0.95 3.33,-1.51 3.49,-2.82 0.08,-0.68 -1.52,-2.69 -1.88,-3.93 -0.78,-1.25 -1.06,-3.23 -0.21,-4.55 0.34,-0.53 0.2,-2.43 0.2,-3.16 0,-7.17 12.58,-7.18 12.58,0 0,0.91 -0.21,2.58 0.28,3.29 0.83,1.2 0.4,3.31 -0.3,4.42 -0.44,1.3 -2.14,3.2 -1.99,3.93 0.93,4.71 6.01,2.03 8.42,5.32 2.27,-1.78 6.79,-2.28 9.54,-3.93 2.52,-1.51 2.09,-2.46 2.07,-4.97 l -4.01,-0.57 v 0.56 z m 26.92,-22.1 h -7.05 c -1.28,-1.81 -2.77,-3.25 -4.39,-4.31 -2.34,-1.54 -4.92,-2.3 -7.51,-2.29 -2.61,0.01 -5.19,0.81 -7.51,2.38 -1.55,1.05 -2.98,2.46 -4.21,4.22 h -30.28 c -1.42,-3.7 -4.49,-6.17 -8.14,-7.44 -1.77,-0.61 -3.62,-0.92 -5.42,-0.92 -1.8,0 -3.65,0.31 -5.42,0.92 -0.66,0.23 -1.31,0.5 -1.93,0.81 v -1.5 c 0,-1.01 0.83,-1.85 1.85,-1.85 h 1.34 V 2.6850004 c 0,-0.73 0.3,-1.41 0.79,-1.90000005 v 0 c 0.48,-0.49 1.16,-0.79 1.91,-0.79 H 103.72 c 0.74,0 1.42,0.3 1.91,0.79 0.05,0.05 0.09,0.1 0.13,0.14 0.42,0.47000005 0.66,1.09000005 0.66,1.76000005 V 50.815001 h 1.34 c 1.01,0 1.85,0.83 1.85,1.85 v 4.65 c -1.39,-0.4 -2.82,-0.59 -4.2,-0.59 -1.67,0 -3.39,0.29 -5.03,0.86 -1.990002,0.68 -3.790002,1.75 -5.220002,3.2 z m -28.26,-23.52 c -0.09,0.08 1.56,2.55 1.75,2.83 2.73,2.06 9.73,2.53 12.4,4.01 0.87,0.49 1.66,1.11 2.29,1.94 1.5,1.98 1.68,2.3 2.22,4.54 H 103.14 V 3.2550004 c -21.960002,0 -59.730002,0.02 -83.400002,0.02 V 50.615001 h 17.58 c 0.54,-2.25 0.71,-2.56 2.22,-4.54 0.63,-0.84 1.42,-1.46 2.29,-1.94 2.67,-1.49 9.67,-1.96 12.4,-4.02 l 1.32,-3.84 c 1.89,0.16 6.08,1.85 11.35,0.99 z m -10.42,-0.02 c -0.36,1.2 -1,3.32 -1.6,4.23 l 3.47,7.05 1.93,-4.08 c -3.08,-4.82 5.84,-4.54 2.7,0 l 1.93,4.08 3.24,-7.05 c -0.82,-1.05 -1.51,-2.24 -2.22,-3.38 -2.82,2.09 -7.02,1.59 -9.45,-0.85 z m 0.96,-0.81 c 1.1,1 2.43,1.68 4.19,1.69 1.91,0 3.3,-0.7 4.43,-1.76 -4.43,1.76 -4.43,1.76 -8.62,0.07 z"
       id="path22"
       style="fill:#262626;fill-opacity:1"
       sodipodi:nodetypes="cccsccccccssccccccccsscccccccsscccccccccccccccccsccsscsssssscscsscscccccccccccccccccccccccccccccc" /></g><style
     type="text/css"
     id="style507"><![CDATA[
	.st0{fill:#4CAF50;}
	.st1{fill:#2196F3;}
	.st2{fill:#F44336;}
	.st3{fill:#262626;}
	.st4{fill:#FFD54F;}
	.st5{fill-rule:evenodd;clip-rule:evenodd;fill:#262626;}
	.st6{fill-rule:evenodd;clip-rule:evenodd;fill:#FFFFFF;}
]]></style><g
     inkscape:groupmode="layer"
     id="layer2"
     inkscape:label="Layer 1" /><g
     id="g531"
     transform="matrix(0.35870515,0,0,0.35870515,39.400888,10.994868)"
     style="stroke:#ffffff;stroke-opacity:1"><path
       class="st3"
       d="m 104.43,21.23 h 0.27 c 0.78,0 1.47,0.36 1.93,0.91 11.41,11.74 17.4,37.23 16.07,54.29 -0.37,4.73 -1.3,8.89 -2.83,12.03 -1.74,3.58 -4.25,5.93 -7.61,6.55 -4.28,0.79 -9.63,-1.47 -16.06,-8.02 -0.83,-0.84 -1.69,-1.69 -2.57,-2.56 -3,-2.95 -6.16,-6.06 -8.83,-9.81 H 38.08 c -2.68,3.78 -5.84,6.89 -8.85,9.84 -0.87,0.86 -1.73,1.7 -2.55,2.53 C 20.25,93.54 14.9,95.8 10.62,95.01 7.26,94.39 4.74,92.04 3.01,88.46 1.48,85.31 0.55,81.16 0.18,76.43 -1.15,59.29 4.9,33.65 16.4,21.98 c 0.49,-0.5 1.13,-0.75 1.78,-0.75 v -0.01 h 0.28 c 1.41,-1.94 3.16,-3.5 5.13,-4.68 2.99,-1.79 6.47,-2.68 9.93,-2.68 3.47,0 6.95,0.89 9.93,2.68 1.96,1.17 3.71,2.73 5.1,4.67 h 7.91 C 55.85,6.29 60,2.53 66.13,2.11 c 2.22,-0.15 4.57,0.24 7.03,0.65 4.65,0.77 9.79,1.62 13.44,-2.03 0.98,-0.98 2.56,-0.98 3.54,0 0.98,0.98 0.98,2.56 0,3.54 C 84.68,9.74 78.21,8.67 72.36,7.7 70.19,7.34 68.13,7 66.46,7.1 63.15,7.32 60.95,10.08 61.47,21.22 h 12.87 c 1.4,-1.94 3.16,-3.51 5.12,-4.68 2.99,-1.79 6.47,-2.68 9.92,-2.68 3.45,0 6.93,0.9 9.92,2.68 1.97,1.18 3.73,2.74 5.13,4.69 z"
       id="path509"
       style="stroke:#ffffff;stroke-opacity:1" /><path
       d="m 93.4,29.07 c 1.62,1.62 2.43,3.73 2.43,5.85 0,2.11 -0.81,4.22 -2.43,5.84 l -0.01,0.01 c -1.62,1.62 -3.73,2.43 -5.84,2.43 -2.11,0 -4.22,-0.81 -5.84,-2.43 L 81.7,40.76 c -1.62,-1.62 -2.43,-3.73 -2.43,-5.84 0,-2.12 0.81,-4.23 2.43,-5.85 1.61,-1.61 3.73,-2.42 5.85,-2.42 2.11,0 4.22,0.81 5.84,2.42 z"
       id="path511"
       style="stroke:#ffffff;stroke-opacity:1" /><path
       class="st4"
       d="m 91.27,31.2 c 2.06,2.06 2.06,5.38 0,7.44 -2.06,2.06 -5.38,2.06 -7.44,0 -2.06,-2.06 -2.06,-5.38 0,-7.44 2.05,-2.04 5.38,-2.04 7.44,0 z"
       id="path513"
       style="stroke:#ffffff;stroke-opacity:1" /><path
       d="m 80.77,40.04 c 0.07,0.07 0.13,0.14 0.19,0.21 1.49,1.59 2.24,3.62 2.24,5.64 0,2.11 -0.81,4.22 -2.43,5.84 l -0.01,0.01 0.01,0.01 c -1.62,1.62 -3.73,2.43 -5.85,2.43 -2.12,0 -4.23,-0.81 -5.85,-2.43 -1.62,-1.62 -2.43,-3.73 -2.43,-5.85 0,-2.12 0.81,-4.23 2.43,-5.85 l 0.01,-0.01 c 0.07,-0.07 0.14,-0.13 0.21,-0.2 1.59,-1.48 3.61,-2.22 5.63,-2.22 2.11,0 4.22,0.81 5.84,2.42 z"
       id="path515"
       style="stroke:#ffffff;stroke-opacity:1" /><path
       class="st1"
       d="m 78.64,42.17 c 2.06,2.06 2.06,5.38 0,7.44 -2.06,2.06 -5.38,2.06 -7.44,0 -2.06,-2.06 -2.06,-5.38 0,-7.44 2.06,-2.05 5.39,-2.05 7.44,0 z"
       id="path517"
       style="stroke:#ffffff;stroke-opacity:1" /><path
       d="m 106.02,40.04 c 1.62,1.62 2.43,3.73 2.43,5.85 0,2.12 -0.81,4.23 -2.43,5.85 -1.62,1.62 -3.73,2.43 -5.85,2.43 -2.11,0 -4.22,-0.81 -5.84,-2.43 l -0.01,-0.01 -0.01,0.01 c -1.62,-1.62 -2.43,-3.73 -2.43,-5.85 0,-2.12 0.81,-4.23 2.43,-5.85 1.62,-1.62 3.73,-2.43 5.85,-2.43 2.12,0 4.24,0.82 5.86,2.43 z"
       id="path519"
       style="stroke:#ffffff;stroke-opacity:1" /><path
       class="st2"
       d="m 103.89,42.17 c 2.06,2.06 2.06,5.38 0,7.44 -2.06,2.06 -5.38,2.06 -7.44,0 -2.06,-2.06 -2.06,-5.38 0,-7.44 2.06,-2.05 5.38,-2.05 7.44,0 z"
       id="path521"
       style="stroke:#ffffff;stroke-opacity:1" /><path
       d="m 93.4,52.01 c 1.62,1.62 2.43,3.73 2.43,5.85 0,2.11 -0.81,4.22 -2.43,5.84 l -0.01,0.01 0.01,0.01 c -1.62,1.62 -3.73,2.43 -5.85,2.43 -2.12,0 -4.23,-0.81 -5.85,-2.43 -0.07,-0.07 -0.13,-0.14 -0.19,-0.21 -1.49,-1.59 -2.24,-3.62 -2.24,-5.64 0,-2.12 0.81,-4.23 2.43,-5.85 0.07,-0.07 0.13,-0.13 0.21,-0.19 1.59,-1.49 3.61,-2.23 5.64,-2.23 2.11,0 4.22,0.81 5.84,2.42 h 0.01 z"
       id="path523"
       style="stroke:#ffffff;stroke-opacity:1" /><path
       class="st0"
       d="m 91.27,54.14 c 2.06,2.06 2.06,5.38 0,7.44 -2.06,2.06 -5.38,2.06 -7.44,0 -2.06,-2.06 -2.06,-5.38 0,-7.44 2.05,-2.04 5.38,-2.04 7.44,0 z"
       id="path525"
       style="stroke:#ffffff;stroke-opacity:1" /><path
       class="st6"
       d="m 33.49,31.31 v 0 c 3.14,0 5.7,2.57 5.7,5.7 v 6.66 h 6.66 c 3.14,0 5.7,2.57 5.7,5.7 v 0 c 0,3.14 -2.57,5.7 -5.7,5.7 h -6.66 v 6.66 c 0,3.14 -2.57,5.7 -5.7,5.7 v 0 c -3.14,0 -5.7,-2.57 -5.7,-5.7 v -6.66 h -6.66 c -3.14,0 -5.7,-2.57 -5.7,-5.7 v 0 c 0,-3.14 2.57,-5.7 5.7,-5.7 h 6.66 v -6.66 c 0,-3.13 2.56,-5.7 5.7,-5.7 z"
       id="path527"
       style="stroke:#ffffff;stroke-opacity:1" /><path
       class="st5"
       d="m 48.96,49.58 -3.63,3.63 V 45.95 Z M 33.67,34.29 37.3,37.92 h -7.26 z m -15.28,15.29 3.63,3.63 v -7.26 z m 15.28,15.28 3.63,-3.63 h -7.26 z"
       id="path529"
       style="stroke:#ffffff;stroke-opacity:1" /></g></svg>
